<svg width="512" height="512" xmlns="http://www.w3.org/2000/svg">

 <g>
  <title>background</title>
  <rect fill="none" id="canvas_background" height="402" width="582" y="-1" x="-1"/>
 </g>
 <g>
  <title>Layer 1</title>
  <g id="svg_1">
   <path id="svg_2" fill="none"/>
   <g id="svg_3">
    <path fill="#9085e3" id="svg_4" d="m476.94,332.587l-124.402,0c-4.151,0 -7.515,3.364 -7.515,7.515c0,4.15 3.364,7.515 7.515,7.515l124.402,0c5.78,0 10.482,4.702 10.482,10.482s-4.703,10.482 -10.482,10.482l-309.423,0c-25.5,0 -46.246,-20.746 -46.246,-46.246c0,-21.449 14.561,-39.939 35.408,-44.964c1.943,-0.468 3.618,-1.691 4.658,-3.397c1.039,-1.707 1.356,-3.757 0.88,-5.698l-31.832,-129.826c-0.988,-4.031 -5.057,-6.497 -9.088,-5.509s-6.497,5.057 -5.509,9.088l30.145,122.943c-23.704,8.873 -39.691,31.494 -39.691,57.362c0,33.787 27.488,61.275 61.275,61.275l10.586,0c-15.206,12.342 -24.946,31.168 -24.946,52.233c0,7.091 1.1,14.078 3.269,20.767c1.28,3.947 5.52,6.108 9.466,4.83c3.948,-1.28 6.111,-5.518 4.83,-9.466c-1.682,-5.189 -2.536,-10.616 -2.536,-16.131c0,-28.801 23.432,-52.233 52.233,-52.233s52.233,23.431 52.233,52.233c0,28.801 -23.432,52.233 -52.233,52.233c-13.237,0 -25.863,-4.96 -35.551,-13.966c-3.04,-2.826 -7.794,-2.652 -10.62,0.387c-2.826,3.04 -2.652,7.795 0.388,10.62c12.478,11.599 28.738,17.987 45.784,17.987c37.089,0 67.263,-30.174 67.263,-67.263c0,-21.065 -9.741,-39.891 -24.946,-52.233l103.484,0c-15.206,12.342 -24.946,31.168 -24.946,52.233c0,37.089 30.174,67.263 67.262,67.263s67.262,-30.174 67.262,-67.263c0,-21.065 -9.741,-39.891 -24.946,-52.233l26.089,0c14.068,0 25.512,-11.444 25.512,-25.511c-0.002,-14.065 -11.446,-25.509 -25.514,-25.509zm-16.172,103.255c0,28.801 -23.431,52.233 -52.233,52.233c-28.801,0 -52.233,-23.432 -52.233,-52.233s23.431,-52.233 52.233,-52.233c28.802,0.001 52.233,23.432 52.233,52.233z"/>
    <path fill="#9085e3" id="svg_5" d="m510.387,72.934c-1.425,-1.807 -3.6,-2.862 -5.901,-2.862l-353.807,0l-6.393,-26.072c-5.068,-20.67 -23.471,-35.106 -44.753,-35.106l-74.022,0c-14.067,0.001 -25.511,11.445 -25.511,25.512s11.444,25.511 25.511,25.511l70.144,0l13.45,54.857c0.988,4.03 5.054,6.496 9.088,5.509c4.031,-0.988 6.497,-5.057 5.509,-9.088l-14.374,-58.624c-1.11,-4.524 -5.138,-7.684 -9.796,-7.684l-74.021,0c-5.78,0 -10.482,-4.702 -10.482,-10.482s4.702,-10.482 10.482,-10.482l74.022,0c14.34,0 26.741,9.727 30.156,23.656l55.61,226.802c1.348,5.499 0.117,11.208 -3.377,15.662s-8.744,7.009 -14.406,7.009c-13.94,0 -25.282,11.341 -25.282,25.281c0,13.941 11.342,25.282 25.282,25.282l154.963,0c4.151,0 7.515,-3.365 7.515,-7.515s-3.364,-7.515 -7.515,-7.515l-154.962,0c-5.653,0 -10.252,-4.599 -10.252,-10.253c0,-5.653 4.599,-10.252 10.252,-10.252c10.309,0 19.869,-4.652 26.231,-12.762c4.403,-5.612 6.828,-12.319 7.094,-19.236l257.048,-0.73c3.467,-0.01 6.477,-2.39 7.286,-5.761l46.617,-194.252c0.537,-2.236 0.018,-4.597 -1.406,-6.405zm-42.905,126.64l-45.677,0l9.726,-49.721l47.883,0l-11.932,49.721zm-48.324,-64.75l-47.139,0l4.318,-49.722l52.547,0l-9.726,49.722zm-58.409,129.777l4.342,-49.997l38.461,0l-9.762,49.903l-33.041,0.094zm-104.534,0.296l-9.838,-50.294l38.461,0l4.359,50.2l-32.982,0.094zm-57.727,0.164l-12.372,-50.458l44.947,0l9.847,50.338l-42.422,0.12zm94.507,-130.237l-4.318,-49.722l72.573,0l-4.318,49.722l-63.937,0zm62.633,15.029l-4.318,49.721l-52.692,0l-4.318,-49.721l61.328,0zm-72.095,49.721l-40.096,0l-9.726,-49.721l45.504,0l4.318,49.721zm-5.623,-64.75l-47.139,0l-9.726,-49.722l52.547,0l4.318,49.722zm-49.787,64.75l-45.692,0l-12.191,-49.721l48.157,0l9.726,49.721zm71.8,15.029l50.082,0l-4.346,50.04l-41.38,0.118l-4.356,-50.158zm66.473,-15.029l4.318,-49.721l45.504,0l-9.726,49.721l-40.096,0zm-160.665,-114.472l9.726,49.722l-48.902,0l-12.191,-49.722l51.367,0zm246.208,179.24l-42.827,0.122l9.753,-49.86l45.01,0l-11.936,49.738zm31.083,-129.518l-48.55,0l9.726,-49.722l50.756,0l-11.932,49.722z"/>
    <path fill="#9085e3" id="svg_6" d="m220.419,472.29c20.097,0 36.448,-16.35 36.448,-36.448c0,-20.097 -16.35,-36.447 -36.448,-36.447c-20.097,0 -36.448,16.35 -36.448,36.447c0.001,20.098 16.351,36.448 36.448,36.448zm0,-57.865c11.81,0 21.418,9.608 21.418,21.418s-9.608,21.418 -21.418,21.418s-21.418,-9.608 -21.418,-21.418s9.608,-21.418 21.418,-21.418z"/>
    <path fill="#9085e3" id="svg_7" d="m408.535,472.29c20.097,0 36.447,-16.35 36.447,-36.448c0,-20.097 -16.35,-36.447 -36.447,-36.447s-36.447,16.35 -36.447,36.447c0,20.098 16.35,36.448 36.447,36.448zm0,-57.865c11.81,0 21.418,9.608 21.418,21.418s-9.608,21.418 -21.418,21.418s-21.418,-9.608 -21.418,-21.418s9.608,-21.418 21.418,-21.418z"/>
   </g>
  </g>
 </g>
</svg>