<svg width="46.47" height="46.47" xmlns="http://www.w3.org/2000/svg">

 <g>
  <title>background</title>
  <rect fill="none" id="canvas_background" height="514" width="514" y="-1" x="-1"/>
 </g>
 <g>
  <title>Layer 1</title>
  <g id="svg_1">
   <path fill="#9085e3" id="svg_2" d="m46.222,41.889c0.658,1.521 -0.042,3.287 -1.562,3.943c-1.521,0.66 -3.286,-0.041 -3.944,-1.562c-2.893,-6.689 -9.73,-11.012 -17.421,-11.012c-7.868,0 -14.747,4.32 -17.523,11.004c-0.48,1.154 -1.597,1.85 -2.772,1.85c-0.384,0 -0.773,-0.073 -1.15,-0.229c-1.53,-0.637 -2.255,-2.393 -1.62,-3.922c3.71,-8.932 12.764,-14.703 23.064,-14.703c10.085,0.002 19.085,5.744 22.928,14.631zm-43.777,-35.33c0,-3.423 2.777,-6.201 6.201,-6.201c3.423,0 6.2,2.777 6.2,6.201c0,3.426 -2.777,6.203 -6.2,6.203c-3.424,-0.001 -6.201,-2.778 -6.201,-6.203zm28.117,0c0,-3.423 2.779,-6.201 6.203,-6.201c3.423,0 6.2,2.777 6.2,6.201c0,3.426 -2.776,6.203 -6.2,6.203s-6.203,-2.778 -6.203,-6.203z"/>
  </g>
  <g id="svg_3"/>
  <g id="svg_4"/>
  <g id="svg_5"/>
  <g id="svg_6"/>
  <g id="svg_7"/>
  <g id="svg_8"/>
  <g id="svg_9"/>
  <g id="svg_10"/>
  <g id="svg_11"/>
  <g id="svg_12"/>
  <g id="svg_13"/>
  <g id="svg_14"/>
  <g id="svg_15"/>
  <g id="svg_16"/>
  <g id="svg_17"/>
 </g>
</svg>