<svg width="512" height="512" xmlns="http://www.w3.org/2000/svg">

 <g>
  <title>background</title>
  <rect fill="none" id="canvas_background" height="514" width="514" y="-1" x="-1"/>
 </g>
 <g>
  <title>Layer 1</title>
  <g id="svg_1">
   <g id="svg_2">
    <path fill="#9085e3" id="svg_3" d="m373.855,246.773c-18.772,-10.953 -40.056,-14.13 -59.937,-8.941c-4.008,1.046 -6.409,5.143 -5.363,9.15c1.046,4.009 5.144,6.413 9.151,5.364c16.015,-4.178 33.268,-1.557 48.589,7.383c1.189,0.694 2.489,1.023 3.773,1.023c7.633,0 10.38,-10.132 3.787,-13.979z"/>
   </g>
  </g>
  <g id="svg_4">
   <g id="svg_5">
    <path fill="#9085e3" id="svg_6" d="m198.036,237.832c-19.878,-5.188 -41.164,-2.013 -59.938,8.941c-6.593,3.846 -3.846,13.979 3.787,13.979c1.284,0 2.584,-0.33 3.773,-1.023c15.321,-8.939 32.576,-11.561 48.59,-7.383c4.009,1.048 8.106,-1.356 9.151,-5.364c1.047,-4.008 -1.355,-8.104 -5.363,-9.15z"/>
   </g>
  </g>
  <g id="svg_7">
   <g id="svg_8">
    <path fill="#9085e3" id="svg_9" d="m313.704,374.711c-22.105,-48.863 -92.69,-50.081 -115.448,-0.013c-2.261,4.974 1.401,10.606 6.823,10.606c2.851,0 5.576,-1.634 6.833,-4.398c17.345,-38.189 71.233,-37.352 88.125,-0.013c1.706,3.774 6.148,5.452 9.924,3.742c3.775,-1.706 5.451,-6.15 3.743,-9.924z"/>
   </g>
  </g>
  <g id="svg_10">
   <g id="svg_11">
    <path fill="#9085e3" id="svg_12" d="m403.684,46.922c-81.665,-57.617 -191.779,-63.681 -280.6,-9.655l-14.467,-27.763c-3.052,-5.856 -9.047,-9.492 -15.65,-9.492c-0.104,0.03 -10.553,-0.32 -15.663,9.514c-44.354,85.407 -42.293,81.395 -42.48,81.821c-5.812,13.233 -6.785,27.761 -3.115,41.28c-58.205,106.044 -33.805,235.424 52.918,313.576c1.434,1.292 3.229,1.929 5.018,1.929c6.848,0 10.109,-8.488 5.023,-13.071c-18.731,-16.881 -34.665,-36.59 -47.362,-58.579c-40.154,-69.552 -43.037,-154.058 -7.778,-226.345c20.531,31.958 64.954,38.042 93.819,13.117c3.136,-2.707 3.482,-7.443 0.775,-10.578c-2.708,-3.136 -7.444,-3.481 -10.578,-0.775c-8.876,7.664 -19.849,11.715 -31.732,11.715c-33.973,0 -56.86,-34.835 -43.346,-66.021c44.218,-83.181 41.162,-82.582 44.499,-82.582c2.644,0.288 -1.606,-6.167 43.559,80.501c4.223,9.739 5.187,20.253 2.786,30.42c-0.952,4.031 1.544,8.071 5.575,9.022c4.028,0.957 8.071,-1.544 9.022,-5.575c3.566,-15.099 0.946,-31.068 -3.962,-40.57l-19.915,-38.215c84.093,-51.599 188.154,-45.639 265.008,8.582c1.313,0.928 2.822,1.373 4.316,1.373c7.302,0.001 10.296,-9.421 4.33,-13.629z"/>
   </g>
  </g>
  <g id="svg_13">
   <g id="svg_14">
    <path fill="#9085e3" id="svg_15" d="m431.608,69.754c-3.014,-2.843 -7.76,-2.706 -10.603,0.308c-2.843,3.013 -2.705,7.76 0.308,10.603c117.174,110.569 95.018,303.252 -44.859,384.01c-81.334,46.958 -180.076,41.61 -255.006,-8.722c-3.436,-2.309 -8.097,-1.395 -10.407,2.044c-2.311,3.438 -1.396,8.098 2.043,10.407c80.197,53.87 185.098,58.782 270.87,9.261c147.246,-85.013 173.367,-289.283 47.654,-407.911z"/>
   </g>
  </g>
  <g id="svg_16"/>
  <g id="svg_17"/>
  <g id="svg_18"/>
  <g id="svg_19"/>
  <g id="svg_20"/>
  <g id="svg_21"/>
  <g id="svg_22"/>
  <g id="svg_23"/>
  <g id="svg_24"/>
  <g id="svg_25"/>
  <g id="svg_26"/>
  <g id="svg_27"/>
  <g id="svg_28"/>
  <g id="svg_29"/>
  <g id="svg_30"/>
 </g>
</svg>